<?xml version="1.0" standalone="no"?><!DOCTYPE svg PUBLIC "-//W3C//DTD SVG 1.1//EN" "http://www.w3.org/Graphics/SVG/1.1/DTD/svg11.dtd"><svg t="1592674725082" class="icon" viewBox="0 0 1179 1024" version="1.1" xmlns="http://www.w3.org/2000/svg" p-id="31568" xmlns:xlink="http://www.w3.org/1999/xlink" width="230.2734375" height="200"><defs><style type="text/css"></style></defs><path d="M292.571429 82.285714m22.857142 0l0 0q22.857143 0 22.857143 22.857143l0 292.571429q0 22.857143-22.857143 22.857143l0 0q-22.857143 0-22.857142-22.857143l0-292.571429q0-22.857143 22.857142-22.857143Z" fill="#EBBF63" p-id="31569"></path><path d="M548.571429 0m22.857142 0l0 0q22.857143 0 22.857143 22.857143l0 292.571428q0 22.857143-22.857143 22.857143l0 0q-22.857143 0-22.857142-22.857143l0-292.571428q0-22.857143 22.857142-22.857143Z" fill="#EB6363" p-id="31570"></path><path d="M841.142857 82.285714m22.857143 0l0 0q22.857143 0 22.857143 22.857143l0 292.571429q0 22.857143-22.857143 22.857143l0 0q-22.857143 0-22.857143-22.857143l0-292.571429q0-22.857143 22.857143-22.857143Z" fill="#EBBF63" p-id="31571"></path><path d="M585.142857 539.428571m73.142857 0l411.428572 0q73.142857 0 73.142857 73.142858l0 292.571428q0 73.142857-73.142857 73.142857l-411.428572 0q-73.142857 0-73.142857-73.142857l0-292.571428q0-73.142857 73.142857-73.142858Z" fill="#86DDF6" p-id="31572"></path><path d="M137.142857 310.857143m73.142857 0l758.857143 0q73.142857 0 73.142857 73.142857l0 146.285714q0 73.142857-73.142857 73.142857l-758.857143 0q-73.142857 0-73.142857-73.142857l0-146.285714q0-73.142857 73.142857-73.142857Z" fill="#F9A0F7" p-id="31573"></path><path d="M658.285714 320v109.714286h-0.246857a41.142857 41.142857 0 1 0-81.782857 0h-27.931429a41.142857 41.142857 0 1 0-81.782857 0h-27.931428a41.142857 41.142857 0 1 0-81.782857 0h-27.931429a41.142857 41.142857 0 1 0-81.782857 0h-18.788572a41.142857 41.142857 0 0 0-81.133714-13.174857A54.857143 54.857143 0 0 1 182.857143 320h475.428571z" fill="#EB62E8" p-id="31574"></path><path d="M658.285714 310.857143v109.714286h-0.246857a41.142857 41.142857 0 1 0-81.782857 0h-27.931429a41.142857 41.142857 0 1 0-81.782857 0h-27.931428a41.142857 41.142857 0 1 0-81.782857 0h-27.931429a41.142857 41.142857 0 1 0-81.782857 0h-18.788572a41.142857 41.142857 0 0 0-81.133714-13.174858A54.857143 54.857143 0 0 1 182.857143 310.857143h475.428571z" fill="#FFECFF" p-id="31575"></path><path d="M658.285714 310.857143m73.142857 0l237.714286 0q73.142857 0 73.142857 73.142857l0 210.285714q0 73.142857-73.142857 73.142857l-237.714286 0q-73.142857 0-73.142857-73.142857l0-210.285714q0-73.142857 73.142857-73.142857Z" fill="#FBEDFF" p-id="31576"></path><path d="M36.571429 539.428571m73.142857 0l960 0q73.142857 0 73.142857 73.142858l0 292.571428q0 73.142857-73.142857 73.142857l-960 0q-73.142857 0-73.142857-73.142857l0-292.571428q0-73.142857 73.142857-73.142858Z" fill="#AFEAFC" p-id="31577"></path><path d="M585.142857 539.428571m73.142857 0l411.428572 0q73.142857 0 73.142857 73.142858l0 292.571428q0 73.142857-73.142857 73.142857l-411.428572 0q-73.142857 0-73.142857-73.142857l0-292.571428q0-73.142857 73.142857-73.142858Z" fill="#E2F8FE" p-id="31578"></path><path d="M0 923.428571h1179.428571v100.571429H0z" fill="#75C2F4" p-id="31579"></path><path d="M338.285714 173.714286a18.285714 18.285714 0 0 0-18.285714-18.285715h-9.142857a18.285714 18.285714 0 0 0-18.285714 18.285715v-45.714286a18.285714 18.285714 0 0 1 18.285714-18.285714h9.142857a18.285714 18.285714 0 0 1 18.285714 18.285714v45.714286zM338.285714 256a18.285714 18.285714 0 0 0-18.285714-18.285714h-9.142857a18.285714 18.285714 0 0 0-18.285714 18.285714v-45.714286a18.285714 18.285714 0 0 1 18.285714-18.285714h9.142857a18.285714 18.285714 0 0 1 18.285714 18.285714v45.714286z" fill="#FFFFFF" p-id="31580"></path><path d="M338.285714 173.714286a18.285714 18.285714 0 0 0-18.285714-18.285715h-9.142857a18.285714 18.285714 0 0 0-18.285714 18.285715v-45.714286a18.285714 18.285714 0 0 1 18.285714-18.285714h9.142857a18.285714 18.285714 0 0 1 18.285714 18.285714v45.714286zM594.285714 109.714286a18.285714 18.285714 0 0 0-18.285714-18.285715h-9.142857a18.285714 18.285714 0 0 0-18.285714 18.285715v-45.714286a18.285714 18.285714 0 0 1 18.285714-18.285714h9.142857a18.285714 18.285714 0 0 1 18.285714 18.285714v45.714286zM594.285714 192a18.285714 18.285714 0 0 0-18.285714-18.285714h-9.142857a18.285714 18.285714 0 0 0-18.285714 18.285714v-45.714286a18.285714 18.285714 0 0 1 18.285714-18.285714h9.142857a18.285714 18.285714 0 0 1 18.285714 18.285714v45.714286zM594.285714 274.285714a18.285714 18.285714 0 0 0-18.285714-18.285714h-9.142857a18.285714 18.285714 0 0 0-18.285714 18.285714v-45.714285a18.285714 18.285714 0 0 1 18.285714-18.285715h9.142857a18.285714 18.285714 0 0 1 18.285714 18.285715v45.714285zM886.857143 182.857143a18.285714 18.285714 0 0 0-18.285714-18.285714h-9.142858a18.285714 18.285714 0 0 0-18.285714 18.285714v-45.714286a18.285714 18.285714 0 0 1 18.285714-18.285714h9.142858a18.285714 18.285714 0 0 1 18.285714 18.285714v45.714286zM886.857143 265.142857a18.285714 18.285714 0 0 0-18.285714-18.285714h-9.142858a18.285714 18.285714 0 0 0-18.285714 18.285714v-45.714286a18.285714 18.285714 0 0 1 18.285714-18.285714h9.142858a18.285714 18.285714 0 0 1 18.285714 18.285714v45.714286z" fill="#FFFFFF" p-id="31581"></path><path d="M658.285714 320v109.714286h1.060572a56.100571 56.100571 0 0 1-0.182857-4.571429c0-22.72 13.622857-41.142857 30.436571-41.142857 16.804571 0 30.427429 18.422857 30.427429 41.142857 0 1.545143-0.054857 3.072-0.182858 4.571429h20.662858a56.091429 56.091429 0 0 1-0.182858-4.571429c0-22.72 13.622857-41.142857 30.427429-41.142857 16.813714 0 30.445714 18.422857 30.445714 41.142857 0 1.545143-0.073143 3.072-0.192 4.571429h20.662857a56.091429 56.091429 0 0 1-0.182857-4.571429c0-22.72 13.622857-41.142857 30.427429-41.142857 16.813714 0 30.436571 18.422857 30.436571 41.142857 0 1.545143-0.064 3.072-0.182857 4.571429h20.662857a56.100571 56.100571 0 0 1-0.192-4.571429c0-22.72 13.622857-41.142857 30.436572-41.142857 16.804571 0 30.436571 18.422857 30.436571 41.142857 0 1.545143-0.064 3.072-0.182857 4.571429h13.897143a56.091429 56.091429 0 0 1-0.192-4.571429c0-22.72 13.622857-41.142857 30.436571-41.142857 13.549714 0 25.033143 11.977143 28.982857 28.525714A54.857143 54.857143 0 0 0 996.571429 320H658.276571z" fill="#FFD3F3" p-id="31582"></path><path d="M658.285714 310.857143v109.714286h1.060572a56.100571 56.100571 0 0 1-0.182857-4.571429c0-22.72 13.622857-41.142857 30.436571-41.142857 16.804571 0 30.427429 18.422857 30.427429 41.142857 0 1.545143-0.054857 3.072-0.182858 4.571429h20.662858a56.091429 56.091429 0 0 1-0.182858-4.571429c0-22.72 13.622857-41.142857 30.427429-41.142857 16.813714 0 30.445714 18.422857 30.445714 41.142857 0 1.545143-0.073143 3.072-0.192 4.571429h20.662857a56.091429 56.091429 0 0 1-0.182857-4.571429c0-22.72 13.622857-41.142857 30.427429-41.142857 16.813714 0 30.436571 18.422857 30.436571 41.142857 0 1.545143-0.064 3.072-0.182857 4.571429h20.662857a56.100571 56.100571 0 0 1-0.192-4.571429c0-22.72 13.622857-41.142857 30.436572-41.142857 16.804571 0 30.436571 18.422857 30.436571 41.142857 0 1.545143-0.064 3.072-0.182857 4.571429h13.897143a56.091429 56.091429 0 0 1-0.192-4.571429c0-22.72 13.622857-41.142857 30.436571-41.142857 13.549714 0 25.033143 11.977143 28.982857 28.525714A54.857143 54.857143 0 0 0 996.571429 310.857143H658.276571z" fill="#FFFFFF" p-id="31583"></path></svg>