<?xml version="1.0" standalone="no"?><!DOCTYPE svg PUBLIC "-//W3C//DTD SVG 1.1//EN" "http://www.w3.org/Graphics/SVG/1.1/DTD/svg11.dtd"><svg t="1592675250609" class="icon" viewBox="0 0 1024 1024" version="1.1" xmlns="http://www.w3.org/2000/svg" p-id="1382" xmlns:xlink="http://www.w3.org/1999/xlink" width="200" height="200"><defs><style type="text/css"></style></defs><path d="M878.81955555 593.35111111c-4.43733333 0-5.23377778-1.36533333-4.43733333-5.91644444 3.52711111-21.27644445 7.39555555-42.55288889 9.67111111-63.94311112 3.98222222-36.18133333 4.20977778-72.36266667-2.16177778-108.31644444-5.57511111-31.85777778-15.58755555-61.89511111-32.88177777-88.74666666-8.53333333-13.19822222-18.31822222-25.48622222-27.19288889-38.4568889-1.59288889-2.38933333-2.73066667-6.25777778-2.27555556-9.10222222 3.75466667-23.66577778 5.80266667-47.44533333 5.34755556-71.45244444-0.45511111-22.30044445-3.18577778-44.25955555-11.49155556-64.96711111-5.68888889-14.336-8.64711111-16.83911111-23.43822222-14.56355556-13.88088889 2.16177778-27.76177778 5.46133333-40.96 10.35377778-33.56444445 12.288-64.39822222 30.72-94.54933333 50.51733333-1.93422222 1.25155555-4.89244445 1.70666667-7.28177778 1.25155556-4.89244445-0.79644445-9.67111111-2.50311111-14.56355555-3.52711111-35.04355555-7.168-70.42844445-9.78488889-106.0408889-10.12622223-33.10933333-0.34133333-66.10488889 1.024-98.87288888 6.48533334-16.15644445 2.73066667-32.19911111 7.05422222-48.01422222 11.60533333-5.23377778 1.47911111-8.76088889 1.36533333-13.19822223-1.93422222-23.66577778-17.63555555-48.46933333-33.33688889-75.20711111-45.16977778-22.98311111-10.12622222-46.42133333-17.97688889-71.79377778-17.74933333-4.32355555 0-6.94044445 1.36533333-8.76088888 5.91644444-10.35377778 25.37244445-15.36 51.88266667-16.27022223 79.41688889-0.79644445 25.82755555 1.47911111 51.31377778 7.96444445 76.34488889 1.13777778 4.43733333 0.22755555 7.50933333-2.50311112 10.92266667-5.91644445 7.62311111-11.37777778 15.58755555-16.95288888 23.43822222-19.79733333 27.98933333-32.31288889 59.16444445-36.40888889 94.09422222-2.95822222 24.91733333-2.73066667 49.83466667-1.59288889 74.86577778 1.13777778 26.05511111 4.66488889 51.76888889 10.69511111 77.14133333 1.59288889 6.94044445 3.52711111 13.76711111 5.68888889 22.18666667-9.67111111 0-18.20444445-0.34133333-26.85155556 0-31.85777778 1.25155555-63.71555555 2.27555555-95.57333333 4.32355555-8.87466667 0.56888889-6.25777778 1.25155555-15.13244445 1.93422223v9.216c3.29955555-0.34133333 6.59911111-0.56888889 9.89866667-0.91022223 30.60622222-2.50311111 49.94844445-3.75466667 80.66844445-5.23377777 15.13244445-0.68266667 30.15111111-0.91022222 45.28355555-1.13777778 1.70666667 0 4.43733333 0.34133333 4.89244445 1.36533333 3.29955555 7.05422222 6.03022222 14.22222222 9.44355555 22.528h-5.91644444c-8.98844445 0.34133333-17.97688889 0.22755555-26.85155556 1.024-31.40266667 2.73066667-62.91911111 5.12-94.208 8.98844445-11.49155555 1.47911111-11.60533333 3.18577778-23.09688889 5.23377777v9.10222223c13.99466667-2.50311111 16.72533333-4.55111111 30.83377778-6.48533333 39.59466667-5.23377778 79.30311111-8.07822222 119.23911111-9.10222223 3.75466667-0.11377778 5.57511111 1.25155555 7.39555556 4.55111111 11.49155555 21.04888889 25.94133333 39.48088889 43.23555555 55.52355556 26.96533333 24.91733333 58.368 41.52888889 92.04622222 53.13422222 31.40266667 10.80888889 63.60177778 17.18044445 96.36977778 20.82133334 1.59288889 0.22755555 3.18577778 0.56888889 4.66488889 0.91022222 0.45511111 0.68266667 1.024 1.47911111 1.47911111 2.16177778-1.70666667 1.024-3.64088889 1.82044445-5.12 3.18577777-16.95288889 16.27022222-30.37866667 35.27111111-34.70222222 59.50577778-1.59288889 9.216-6.48533333 12.51555555-13.312 15.24622222-0.34133333 0.11377778-0.68266667 0.22755555-0.91022222 0.34133333-22.98311111 9.216-46.64888889 10.12622222-70.656 7.28177778-22.64177778-2.61688889-40.96-13.312-55.06844444-32.19911111-9.89866667-13.19822222-19.68355555-26.624-29.80977778-39.59466667-13.312-17.06666667-27.76177778-32.88177778-48.92444445-38.912-12.40177778-3.52711111-25.03111111-3.98222222-37.20533333 1.024-5.91644445 2.38933333-7.168 7.50933333-3.29955556 12.74311112 2.95822222 3.86844445 6.59911111 7.50933333 10.58133334 10.24 25.03111111 17.18044445 44.25955555 39.48088889 56.77511111 68.38044444 5.91644445 13.53955555 11.71911111 27.30666667 19.11466667 39.936 17.74933333 30.15111111 43.91822222 48.01422222 76.68622222 54.49955556 27.76177778 5.57511111 55.63733333 2.95822222 83.39911111-0.34133334 4.55111111-0.56888889 5.91644445 0.45511111 5.91644444 5.23377778v10.58133334h57.79911111c0.11377778-13.88088889 0.11377778-27.87555555 0.34133334-41.75644445 0.11377778-8.192 1.59288889-16.49777778 3.52711111-24.34844445 2.38933333-9.32977778 6.94044445-17.63555555 14.90488889-24.576 0.34133333 2.27555555 0.68266667 3.52711111 0.68266666 4.89244445 0.11377778 8.07822222 0.45511111 16.15644445 0.34133334 24.23466667-0.22755555 20.59377778-0.34133333 41.07377778-0.56888889 61.66755555h64.28444444c-0.11377778-28.10311111-0.68266667-56.32-1.024-84.42311111-0.11377778-11.94666667-0.34133333-11.83288889 10.58133333-12.51555556 4.096-0.22755555 5.57511111 1.024 5.57511112 5.57511112 0 18.65955555 0.45511111 37.31911111 0.45511111 55.97866666 0 11.83288889 0.11377778 23.66577778 0.11377777 35.49866667H591.64444445v-82.60266667c0-1.82044445 0.22755555-3.64088889 0.4551111-5.68888888 6.59911111 0.45511111 9.55733333 4.89244445 11.8328889 9.89866666 5.68888889 12.74311111 6.71288889 26.51022222 6.94044444 40.16355556 0.22755555 12.74311111 0.34133333 25.6 0.45511111 38.34311111h59.50577778c0-12.85688889-0.11377778-25.71377778 0-38.57066667 0.11377778-24.00711111-1.13777778-47.90044445-5.80266667-71.33866666-4.55111111-23.09688889-13.88088889-43.57688889-31.51644444-58.9368889-3.86844445-3.41333333-7.96444445-6.59911111-12.97066667-10.6951111 6.03022222-0.91022222 11.03644445-1.70666667 16.04266667-2.38933334 38.57066667-4.77866667 76.45866667-12.17422222 112.86755555-26.85155556 45.16977778-18.09066667 81.80622222-47.33155555 104.22044445-93.75288888 3.98222222-8.30577778 7.73688889-12.06044445 17.29422222-11.15022222 27.87555555 2.61688889 55.97866667 3.29955555 83.968 5.80266666 23.32444445 2.048 12.40177778 1.70666667 35.61244444 5.12 2.27555555 0.34133333 4.43733333 0.68266667 6.71288889 1.024v-9.216c-4.55111111-0.68266667-9.10222222-1.25155555-13.76711111-1.82044444-33.792-4.096-33.56444445-4.096-67.47022222-7.28177778-15.47377778-1.47911111-31.17511111-1.59288889-46.76266667-2.27555556-5.80266667-0.22755555-6.25777778-0.91022222-4.096-6.94044444 1.25155555-3.64088889 2.84444445-7.168 3.64088889-10.92266667 0.91022222-5.00622222 3.64088889-6.59911111 8.07822222-6.48533333 25.03111111 0.45511111 50.176 0.22755555 75.20711112 1.36533333 26.39644445 1.13777778 18.77333333 1.47911111 45.16977777 3.75466667v-8.76088889c-22.75555555-2.048-11.37777778-2.50311111-34.13333333-3.75466667-28.10311111-2.048-56.20622222-1.59288889-84.30933334-1.93422222z" fill="" p-id="1383"></path><path d="M749.90933333 444.416c-29.58222222-21.84533333-63.14666667-26.96533333-98.304-24.576-32.99555555 2.16177778-65.99111111 4.89244445-98.98666666 6.03022222-24.00711111 0.79644445-48.01422222-0.11377778-72.02133334-1.024-29.01333333-1.13777778-58.02666667-2.95822222-87.04-5.00622222-20.82133333-1.47911111-41.30133333-0.45511111-61.32622222 5.68888889-46.19377778 14.336-74.41066667 47.33155555-87.15377778 95.34577778-8.76088889 32.88177778-5.57511111 65.536 5.12 97.28 14.67733333 43.91822222 45.16977778 71.68 84.992 89.088 30.72 13.42577778 63.03288889 19.68355555 96.02844445 21.27644444 32.99555555 1.70666667 66.10488889 2.048 98.19022222 3.072 33.10933333-0.91022222 65.19466667-1.36533333 97.16622222-2.84444444 31.06133333-1.47911111 61.32622222-7.168 89.99822223-20.48 45.056-20.82133333 71.79377778-56.88888889 80.55466666-107.40622222 5.12-29.80977778 4.66488889-59.73333333-3.52711111-89.088-7.62311111-27.42044445-21.16266667-50.63111111-43.69066667-67.35644445z" fill="#FDBF9D" p-id="1384"></path><path d="M542.49244445 665.94133333c-1.36533333 2.16177778-1.59288889 5.12-3.072 7.168-7.96444445 11.83288889-27.53422222 14.44977778-40.73244445 5.68888889-5.23377778-3.52711111-9.55733333-7.50933333-11.83288889-13.53955555-0.56888889-1.36533333-3.29955555-2.16177778-5.00622222-3.18577778-0.91022222 1.59288889-2.38933333 3.072-2.73066667 4.77866666-0.22755555 1.47911111 0.56888889 3.18577778 1.36533333 4.55111112 7.50933333 13.19822222 19.91111111 19.22844445 38.00177778 21.04888888 4.43733333-1.36533333 11.49155555-2.61688889 17.52177778-5.68888888 8.192-4.20977778 14.336-10.69511111 14.44977778-20.25244445 0-1.47911111-2.16177778-3.072-3.41333334-4.55111111-1.47911111 1.36533333-3.52711111 2.38933333-4.5511111 3.98222222zM517.34755555 614.51377778c-7.05422222-0.11377778-13.42577778 6.37155555-13.42577777 13.53955555 0 7.62311111 5.91644445 13.65333333 13.76711111 13.65333334 7.50933333 0 13.42577778-5.80266667 13.42577778-13.42577778-0.11377778-7.62311111-6.03022222-13.65333333-13.76711112-13.76711111z" fill="#B1403B" p-id="1385"></path><path d="M635.79022222 504.26311111c-11.94666667 19.00088889-15.36 40.04977778-12.97066667 62.35022222 2.048 19.11466667 7.85066667 36.52266667 21.84533334 49.83466667 13.53955555 12.97066667 33.56444445 13.08444445 46.76266666-0.11377778 16.49777778-16.49777778 22.64177778-37.31911111 22.30044445-63.26044444 0.56888889-15.58755555-3.41333333-32.42666667-12.62933333-47.90044445-17.06666667-28.10311111-47.78666667-28.672-65.30844445-0.91022222z" fill="#FFFFFF" p-id="1386"></path><path d="M641.70666667 515.18577778c-9.78488889 14.90488889-12.51555555 31.51644445-10.58133334 49.03822222 1.70666667 15.01866667 6.37155555 28.672 17.74933334 39.25333333 11.03644445 10.24 27.30666667 10.35377778 38.11555555-0.11377778 13.42577778-12.97066667 18.432-29.35466667 18.20444445-49.72088888 0.45511111-12.288-2.73066667-25.48622222-10.35377778-37.66044445-13.76711111-22.18666667-38.79822222-22.64177778-53.13422222-0.79644444z" fill="#B1403B" p-id="1387"></path><path d="M333.59644445 504.26311111c-11.94666667 19.00088889-15.36 40.04977778-12.97066667 62.35022222 2.048 19.11466667 7.85066667 36.52266667 21.84533333 49.83466667 13.53955555 12.97066667 33.56444445 13.08444445 46.76266667-0.11377778 16.49777778-16.49777778 22.64177778-37.31911111 22.30044444-63.26044444 0.56888889-15.58755555-3.41333333-32.42666667-12.62933333-47.90044445-16.95288889-28.10311111-47.67288889-28.672-65.30844444-0.91022222z" fill="#FFFFFF" p-id="1388"></path><path d="M339.62666667 515.18577778c-9.78488889 14.90488889-12.51555555 31.51644445-10.58133334 49.03822222 1.70666667 15.01866667 6.37155555 28.672 17.74933334 39.25333333 11.03644445 10.24 27.30666667 10.35377778 38.11555555-0.11377778 13.42577778-12.97066667 18.432-29.35466667 18.20444445-49.72088888 0.45511111-12.288-2.73066667-25.48622222-10.35377778-37.66044445-13.88088889-22.18666667-38.912-22.64177778-53.13422222-0.79644444z" fill="#B1403B" p-id="1389"></path><path d="M142.67733333 759.92177778m-5.23377778 0a5.23377778 5.23377778 0 1 0 10.46755556 0 5.23377778 5.23377778 0 1 0-10.46755556 0Z" fill="#FFFFFF" p-id="1390"></path><path d="M171.57688889 776.192m-5.23377778 0a5.23377778 5.23377778 0 1 0 10.46755556 0 5.23377778 5.23377778 0 1 0-10.46755556 0Z" fill="#FFFFFF" p-id="1391"></path><path d="M193.42222222 798.72m-5.23377777 0a5.23377778 5.23377778 0 1 0 10.46755555 0 5.23377778 5.23377778 0 1 0-10.46755555 0Z" fill="#FFFFFF" p-id="1392"></path><path d="M212.87822222 823.18222222m-5.23377777 0a5.23377778 5.23377778 0 1 0 10.46755555 0 5.23377778 5.23377778 0 1 0-10.46755555 0Z" fill="#FFFFFF" p-id="1393"></path><path d="M234.83733333 851.17155555m-5.23377778 0a5.23377778 5.23377778 0 1 0 10.46755556 0 5.23377778 5.23377778 0 1 0-10.46755556 0Z" fill="#FFFFFF" p-id="1394"></path><path d="M266.24 871.19644445m-5.23377778 0a5.23377778 5.23377778 0 1 0 10.46755556 0 5.23377778 5.23377778 0 1 0-10.46755556 0Z" fill="#FFFFFF" p-id="1395"></path><path d="M316.07466667 876.43022222m-5.23377778 0a5.23377778 5.23377778 0 1 0 10.46755556 0 5.23377778 5.23377778 0 1 0-10.46755556 0Z" fill="#FFFFFF" p-id="1396"></path><path d="M359.19644445 881.43644445m-5.23377778 0a5.23377778 5.23377778 0 1 0 10.46755555 0 5.23377778 5.23377778 0 1 0-10.46755555 0Z" fill="#FFFFFF" p-id="1397"></path></svg>