<?xml version="1.0" standalone="no"?><!DOCTYPE svg PUBLIC "-//W3C//DTD SVG 1.1//EN" "http://www.w3.org/Graphics/SVG/1.1/DTD/svg11.dtd"><svg t="1592674060135" class="icon" viewBox="0 0 1057 1024" version="1.1" xmlns="http://www.w3.org/2000/svg" p-id="24395" xmlns:xlink="http://www.w3.org/1999/xlink" width="206.4453125" height="200"><defs><style type="text/css"></style></defs><path d="M1048.358377 565.795249a32.523677 32.523677 0 0 1-21.222628 7.693202 29.446396 29.446396 0 0 1-21.222627-7.693202L949.779272 509.34306v424.452549a87.755565 87.755565 0 0 1-88.922809 90.196167H323.340365a90.620619 90.620619 0 0 1-90.885902-90.196167V509.34306l-54.1177 54.382983a28.650547 28.650547 0 1 1-40.588275-40.429106l405.988864-408.164183c11.619389-13.476368 29.021943-19.206478 48.334534-19.206478a70.35301 70.35301 0 0 1 50.297627 21.222628L1048.358377 525.26003a27.801642 27.801642 0 0 1 0 40.535219z" fill="#54AADE" opacity=".2" p-id="24396"></path><path d="M919.324802 429.333754L513.229825 21.222627a70.35301 70.35301 0 0 0-50.297627-21.222627c-19.312591 0-36.715146 5.783166-48.334534 19.259534L8.714913 427.423718a27.801642 27.801642 0 0 0 0 40.429105 28.066925 28.066925 0 0 0 40.588275 0l54.1177-54.43604v424.081154a90.620619 90.620619 0 0 0 90.885902 90.514506h537.463041a87.808621 87.808621 0 0 0 89.188092-90.514506v-424.45255l56.027737 56.611359a29.181113 29.181113 0 0 0 21.222627 7.693203 32.258394 32.258394 0 0 0 21.222628-7.693203 27.801642 27.801642 0 0 0-0.106113-40.322992zM364.671432 870.127727v-209.732616a98.632161 98.632161 0 0 1 197.211266 0V870.127727z m397.924266-513.958981v481.329191a33.797034 33.797034 0 0 1-32.842016 32.735903h-110.09238v-209.838729a156.622991 156.622991 0 0 0-313.033756 0V870.127727H194.30679a33.797034 33.797034 0 0 1-32.842016-32.735903v-481.223078-1.008075l293.827278-295.472031a7.746259 7.746259 0 0 1 7.746259-3.87313c1.963093 0 3.87313 0 7.746259 3.87313l291.811128 294.941465a15.015009 15.015009 0 0 0 0 1.538641z" fill="#54AADE" p-id="24397"></path></svg>