<?xml version="1.0" standalone="no"?><!DOCTYPE svg PUBLIC "-//W3C//DTD SVG 1.1//EN" "http://www.w3.org/Graphics/SVG/1.1/DTD/svg11.dtd"><svg t="1592678014066" class="icon" viewBox="0 0 1071 1024" version="1.1" xmlns="http://www.w3.org/2000/svg" p-id="6404" xmlns:xlink="http://www.w3.org/1999/xlink" width="209.1796875" height="200"><defs><style type="text/css"></style></defs><path d="M876.444693 97.382744a97.382744 97.382744 0 0 1 97.382744 97.382743v486.913719a97.382744 97.382744 0 0 1-97.382744 97.382743h-213.755122l-28.72791 28.72791-109.068673 109.068673-109.068673-109.068673L389.530975 779.061949H194.765487a97.382744 97.382744 0 0 1-97.382743-97.382743V194.765487a97.382744 97.382744 0 0 1 97.382743-97.382743h681.679206m0-97.382744H194.765487a194.765487 194.765487 0 0 0-194.765487 194.765487v486.913719a194.765487 194.765487 0 0 0 194.765487 194.765487h151.91708l126.110653 126.110653a74.010885 74.010885 0 0 0 104.199536 0L703.103409 876.444693H876.444693a194.765487 194.765487 0 0 0 194.765487-194.765487V194.765487a194.765487 194.765487 0 0 0-194.765487-194.765487z" fill="#4A96FF" p-id="6405"></path><path d="M730.370577 292.148231H340.839603a48.691372 48.691372 0 0 0 0 97.382744h389.530974a48.691372 48.691372 0 0 0 0-97.382744zM535.60509 486.913718H340.839603a48.691372 48.691372 0 0 0 0 97.382744h194.765487a48.691372 48.691372 0 0 0 0-97.382744z" fill="#FBB03B" p-id="6406"></path></svg>