<svg t="1592678532770" class="icon" viewBox="0 0 1024 1024" version="1.1" xmlns="http://www.w3.org/2000/svg" p-id="8095" width="200" height="200"><path d="M842.08 140.64l-22.72-22.72c-62.4-62.4-163.68-62.4-226.24 0l-90.56 90.56c-62.4 62.4-62.4 163.84 0 226.24l22.72 22.72c62.4 62.4 163.84 62.4 226.24 0l90.56-90.56c62.4-62.56 62.4-163.84 0-226.24zM774.24 288L672 390.24c-4 4-8.64 7.2-13.76 9.76 6.08-10.72-18.24-3.36-18.24-16 0-19.36 20-56.8 6.56-70.56-13.76-13.44-51.2-9.44-70.56-9.44-12.64 0-5.28-8.32-16-2.24 2.4-5.12 5.76-9.6 9.76-13.76L672 185.76a54.08 54.08 0 0 1 76.48 0l25.76 25.76c10.08 10.08 15.84 23.84 15.84 38.24s-5.76 28-15.84 38.24z m-316.8 237.28l-22.72-22.72c-62.4-62.4-163.84-62.4-226.24 0l-90.56 90.56c-62.4 62.56-62.4 163.84 0 226.24l22.72 22.72c62.4 62.4 163.68 62.4 226.24 0l90.56-90.56c62.4-62.4 62.4-163.84 0-226.24z m-58.08 146.4l-111.04 111.04a58.72 58.72 0 0 1-83.2 0l-27.84-27.84a58.448 58.448 0 0 1-17.28-41.6c0-15.68 6.24-30.4 17.28-41.6l111.04-111.04c4.32-4.32 9.44-7.84 14.88-10.56-6.72 11.52 0.8 12.16 0.8 25.92 0 20.96-2.72 53.12 12 68 14.88 14.72 31.04 12 52 12 13.76 0 30.4 7.52 41.92 0.8-2.56 5.44-6.24 10.4-10.56 14.88z" fill="#F9E3AE" p-id="8096"></path><path d="M819.36 117.92c-62.4-62.4-163.68-62.4-226.24 0l-90.56 90.56c-62.4 62.4-62.4 163.84 0 226.24l11.36 11.36 132.64-132.64c-13.76-13.44-51.2-9.44-70.56-9.44-12.64 0-5.28-8.32-16-2.24 2.4-5.12 5.76-9.6 9.76-13.76L672 185.76a54.08 54.08 0 0 1 76.48 0l12.96 12.96 69.28-69.44-11.36-11.36zM434.72 502.56c-62.4-62.4-163.84-62.4-226.24 0l-90.56 90.56c-62.4 62.56-62.4 163.84 0 226.24l11.36 11.36 61.92-61.92-13.92-13.92a58.448 58.448 0 0 1-17.28-41.6c0-15.68 6.24-30.4 17.28-41.6l111.04-111.04c4.32-4.32 9.44-7.84 14.88-10.56-6.72 11.52 0.8 12.16 0.8 25.92 0 20.96-2.72 53.12 12 68l130.08-130.08-11.36-11.36z" fill="#F9E3AE" p-id="8097"></path><path d="M842.08 366.88l-90.56 90.56c-62.4 62.4-163.84 62.4-226.24 0l-11.36-11.36 132.64-132.64c13.44 13.76-6.56 51.2-6.56 70.56 0 12.64 24.32 5.28 18.24 16 5.12-2.56 9.76-5.76 13.76-9.76L774.24 288c10.08-10.24 15.84-23.84 15.84-38.24s-5.76-28.16-15.84-38.24l-12.8-12.8 69.28-69.44 11.36 11.36c62.4 62.4 62.4 163.68 0 226.24zM457.44 751.52l-90.56 90.56c-62.56 62.4-163.84 62.4-226.24 0l-11.36-11.36 61.92-61.92 13.92 13.92a58.72 58.72 0 0 0 83.2 0l111.04-111.04c4.32-4.48 8-9.44 10.56-14.88-11.52 6.72-28.16-0.8-41.92-0.8-20.96 0-37.12 2.72-52-12l130.08-130.08 11.36 11.36c62.4 62.4 62.4 163.84 0 226.24z" fill="#F6D397" p-id="8098"></path><path d="M321.616 638.384a48 48 0 0 1 0-67.888L570.512 321.6a48 48 0 1 1 67.888 67.888L389.488 638.384a47.968 47.968 0 0 1-67.872 0z" fill="#F9E3AE" p-id="8099"></path><path d="M513.92 513.92l-124.48 124.48a48 48 0 0 1-67.84 0 48 48 0 0 1 0-67.84l124.48-124.48 67.84 67.84z" fill="#F6D397" p-id="8100"></path><path d="M853.28 129.28l-22.56-22.56c-68.64-68.64-180.32-68.64-248.96 0l-90.4 90.4c-56.8 56.8-66.56 143.2-29.28 210.24l-54.72 54.72c-67.04-37.28-153.44-27.52-210.24 29.28l-90.4 90.4a174.896 174.896 0 0 0-51.68 124.48c0 47.04 18.4 91.2 51.68 124.48l22.56 22.56c34.24 34.4 79.36 51.52 124.48 51.52 44.96 0 90.08-17.12 124.48-51.52l90.4-90.4c56.8-56.8 66.56-143.2 29.28-210.24l54.72-54.72c26.56 14.88 56.16 22.24 85.76 22.24 45.12 0 90.08-17.12 124.48-51.52l90.4-90.4c33.28-33.28 51.68-77.44 51.68-124.48s-18.4-91.2-51.68-124.48zM488.16 638.4c0 38.4-14.88 74.56-42.08 101.76l-90.56 90.56c-56.16 56.16-147.52 56.16-203.68 0l-22.56-22.56a143.168 143.168 0 0 1-42.24-101.92c0-38.4 15.04-74.56 42.24-101.76l90.56-90.56c27.2-27.2 63.36-42.08 101.76-42.08 21.76 0 42.88 4.8 61.92 14.08l-50.72 50.72a79.248 79.248 0 0 0-67.68 22.56l-90.56 90.56c-15.2 15.04-23.52 35.2-23.52 56.48 0 21.44 8.32 41.44 23.52 56.64l22.56 22.56a79.68 79.68 0 0 0 56.64 23.36c20.48 0 40.96-7.68 56.48-23.36l90.56-90.4a79.904 79.904 0 0 0 22.56-67.84l50.72-50.72c9.28 19.04 14.08 40.16 14.08 61.92z m-177.92 11.36c12.16 12 28.16 18.72 45.28 18.72 11.2 0 21.92-2.88 31.36-8.32-2.08 4.48-5.12 8.48-8.64 12.16l-90.56 90.56a48 48 0 0 1-67.84 0l-22.72-22.72c-8.96-8.96-14.08-21.12-14.08-33.92s5.12-24.8 14.08-33.92l90.56-90.56c3.52-3.52 7.68-6.4 12.16-8.64-5.44 9.44-8.32 20.16-8.32 31.36 0 17.12 6.72 33.12 18.72 45.28z m169.28-124l-22.72 22.72-45.92 45.92-23.36 23.36-9.28 9.28c-6.08 6.08-14.4 9.12-22.72 9.12-8.32 0-16.64-3.04-22.56-9.12a31.824 31.824 0 0 1 0-45.28l9.28-9.28 23.36-23.36 45.92-45.92 22.72-22.72 46.24-46.24 22.72-22.72 45.92-45.92 23.36-23.36 9.28-9.28a31.824 31.824 0 0 1 45.28 0 31.824 31.824 0 0 1 0 45.28l-9.28 9.28-23.36 23.36-45.92 45.92-22.56 22.56-46.4 46.4z m170.24-215.52a64.064 64.064 0 0 0-45.28-18.72c-11.2 0-21.92 2.88-31.36 8.32 2.08-4.48 5.12-8.48 8.64-12.16l90.56-90.56a48 48 0 0 1 67.84 0l22.72 22.72c8.96 8.96 14.08 21.12 14.08 33.92s-5.12 24.8-14.08 33.92l-90.56 90.56c-3.52 3.52-7.68 6.4-12.16 8.64 5.44-9.44 8.32-20.16 8.32-31.36 0-17.12-6.72-33.12-18.72-45.28z m180.96 45.28l-90.56 90.56a142.928 142.928 0 0 1-101.76 42.08c-21.76 0-42.88-4.8-61.92-14.08l50.72-50.72a79.248 79.248 0 0 0 67.68-22.56l90.56-90.56c15.2-15.04 23.52-35.2 23.52-56.48 0-21.44-8.32-41.44-23.52-56.64l-22.56-22.56c-31.2-31.2-82.08-31.2-113.12 0l-90.56 90.4a79.904 79.904 0 0 0-22.56 67.84l-50.72 50.72a141.056 141.056 0 0 1-14.08-61.92c0-38.4 14.88-74.56 42.08-101.76l90.56-90.56c56.16-56.16 147.52-56.16 203.68 0l22.56 22.56c27.2 27.2 42.24 63.36 42.24 101.92 0 38.4-15.04 74.56-42.24 101.76z m-569.056-74.528a15.952 15.952 0 0 0 22.624 0 15.984 15.984 0 0 0 0-22.624l-22.624-22.624a15.984 15.984 0 1 0-22.624 22.624l22.624 22.624z m-70.176 46.192l27.712 16a15.968 15.968 0 0 0 21.856-5.856 16 16 0 0 0-5.856-21.856l-27.712-16a16 16 0 1 0-16 27.712z m195.136-127.904a16 16 0 1 0 30.912-8.304l-8.304-30.912a16.064 16.064 0 0 0-19.6-11.312 15.984 15.984 0 0 0-11.312 19.6l8.304 30.928zM163.376 405.952l30.912 8.288a16 16 0 0 0 8.288-30.912l-30.912-8.288a16 16 0 0 0-8.288 30.912z m155.376-174.048a16 16 0 1 0 27.712-16l-16-27.712a16 16 0 1 0-27.712 16l16 27.712z m405.184 466.112a15.984 15.984 0 1 0-22.624 22.624l22.624 22.624a15.952 15.952 0 0 0 22.624 0 15.984 15.984 0 0 0 0-22.624l-22.624-22.624z m70.176-46.192l-27.712-16a16 16 0 0 0-16 27.712l27.712 16a15.968 15.968 0 0 0 21.856-5.856 16 16 0 0 0-5.856-21.856z m-195.136 127.904a16 16 0 0 0-30.912 8.288l8.288 30.912a16 16 0 1 0 30.912-8.288l-8.288-30.912z m223.248-206.672l-30.928-8.288a16 16 0 1 0-8.288 30.912l30.928 8.288a16.016 16.016 0 0 0 8.288-30.912z m-155.392 174.048a16 16 0 1 0-27.712 16l16 27.712a16 16 0 1 0 27.712-16l-16-27.712z" fill="#8D6C9F" p-id="8101"></path></svg>