<svg t="1593192140943" class="icon" viewBox="0 0 1024 1024" version="1.1" xmlns="http://www.w3.org/2000/svg" p-id="2576" width="200" height="200"><path d="M175.593 138.195c-41.321 0-74.758 33.509-74.758 74.758 0 41.321 33.437 74.758 74.758 74.758 41.248 0 74.756-33.437 74.756-74.758 0-41.25-33.509-74.758-74.756-74.758zM175.593 437.224c-41.321 0-74.758 33.508-74.758 74.795 0 41.246 33.437 74.757 74.758 74.757 41.248 0 74.756-33.511 74.756-74.757 0-41.287-33.509-74.795-74.756-74.795zM175.593 736.29c-41.321 0-74.758 33.436-74.758 74.758 0 41.248 33.437 74.758 74.758 74.758 41.248 0 74.756-33.51 74.756-74.758 0-41.322-33.509-74.758-74.756-74.758zM904.476 175.574h-523.3c-10.37 0-18.692 8.394-18.692 18.69v37.379a18.632 18.632 0 0 0 18.692 18.688h523.3c10.294 0 18.688-8.322 18.688-18.688v-37.379c0-10.295-8.394-18.69-18.688-18.69zM904.476 474.603h-523.3c-10.37 0-18.692 8.397-18.692 18.69v37.413c0 10.296 8.323 18.692 18.692 18.692h523.3c10.294 0 18.688-8.396 18.688-18.692v-37.413c0-10.293-8.394-18.69-18.688-18.69zM904.476 773.669h-523.3a18.632 18.632 0 0 0-18.692 18.687v37.379c0 10.293 8.323 18.691 18.692 18.691h523.3c10.294 0 18.688-8.398 18.688-18.691v-37.379c0-10.365-8.394-18.687-18.688-18.687z" p-id="2577"></path></svg>