<svg t="1592673959788" class="icon" viewBox="0 0 1024 1024" version="1.1" xmlns="http://www.w3.org/2000/svg" p-id="21758" width="200" height="200"><path d="M542.4896 1.28H125.5552a73.5232 73.5232 0 0 0-73.4336 73.4208v947.7504h160V831.1424a43.392 43.392 0 0 1 43.4176-43.4176h156.4544a43.392 43.392 0 0 1 43.4176 43.4176v191.3088H615.68V74.432A73.0752 73.0752 0 0 0 542.4896 1.28zM216.6528 619.1872a60.5568 60.5568 0 1 1 60.5696-60.5568 60.48 60.48 0 0 1-60.5696 60.5568z m0-199.36a60.5568 60.5568 0 1 1 60.5696-60.5696A60.4928 60.4928 0 0 1 216.6528 419.84z m2.1504-199.68a60.5568 60.5568 0 1 1 60.5568-60.5568A60.4928 60.4928 0 0 1 218.7904 220.16z m229.9008 399.04a60.5568 60.5568 0 1 1 60.5568-60.5568 60.4928 60.4928 0 0 1-60.5568 60.5568z m0-199.36a60.5568 60.5568 0 1 1 60.5568-60.5696A60.5056 60.5056 0 0 1 448.704 419.84z m2.1504-199.68a60.5568 60.5568 0 1 1 60.544-60.5568 60.4928 60.4928 0 0 1-60.544 60.5696z" fill="#16C2B5" p-id="21759"></path><path d="M974.4384 232.256A41.2928 41.2928 0 0 0 933.12 190.9888H712.3712a40.96 40.96 0 0 0-40.96 40.96v790.5024h78.5024v0.2688h146.8032v-0.2688h77.7216z" fill="#16C2B5" opacity=".5" p-id="21760"></path></svg>