<?xml version="1.0" standalone="no"?><!DOCTYPE svg PUBLIC "-//W3C//DTD SVG 1.1//EN" "http://www.w3.org/Graphics/SVG/1.1/DTD/svg11.dtd"><svg t="1592675656776" class="icon" viewBox="0 0 1024 1024" version="1.1" xmlns="http://www.w3.org/2000/svg" p-id="34565" xmlns:xlink="http://www.w3.org/1999/xlink" width="200" height="200"><defs><style type="text/css"></style></defs><path d="M107.52 522.24c69.12-5.12 130.56 10.24 192 40.96 102.4 48.64 202.24 97.28 309.76 138.24 66.56 25.6 130.56 48.64 202.24 53.76 17.92 2.56 38.4 5.12 33.28-23.04-2.56-20.48 0-20.48 15.36-20.48 46.08-5.12 97.28-30.72 135.68-51.2 10.24-5.12 20.48-12.8 12.8-25.6-7.68-10.24-17.92-2.56-25.6 0-33.28 17.92-66.56 35.84-102.4 46.08-25.6 7.68-33.28 2.56-35.84-28.16-5.12-432.64 5.12-422.4-5.12-432.64-125.44 112.64-248.32 222.72-371.2 335.36-23.04 20.48-35.84 23.04-61.44 0C302.08 455.68 194.56 358.4 81.92 253.44v250.88c0 25.6 12.8 17.92 25.6 17.92z" fill="#F47E20" p-id="34566"></path><path d="M995.84 739.84c-71.68 48.64-168.96 66.56-250.88 48.64-28.16-7.68-58.88-15.36-87.04-25.6-104.96-38.4-209.92-84.48-309.76-133.12-66.56-33.28-135.68-66.56-212.48-64-20.48 2.56-40.96 2.56-58.88 5.12-43.52 7.68-69.12 33.28-71.68 81.92-2.56 58.88 2.56 79.36 56.32 92.16 15.36 5.12 23.04 10.24 23.04 28.16v48.64c-2.56 20.48 5.12 25.6 25.6 25.6 235.52 15.36 471.04 28.16 704 46.08 30.72 2.56 38.4-7.68 33.28-35.84-5.12-28.16-7.68-35.84 20.48-38.4 40.96-5.12 112.64-40.96 145.92-58.88 7.68-5.12-7.68-28.16-17.92-20.48z m-913.92-20.48c-5.12 15.36-51.2-5.12-58.88-23.04-15.36-28.16 7.68-79.36 35.84-94.72 17.92-10.24 28.16-7.68 25.6 15.36-2.56 0 5.12 76.8-2.56 102.4zM419.84 519.68c20.48 20.48 28.16 5.12 40.96-5.12 120.32-117.76 240.64-238.08 360.96-355.84 5.12-5.12 12.8-7.68 7.68-20.48-243.2 15.36-491.52 28.16-742.4 46.08 2.56 7.68 5.12 10.24 7.68 12.8C204.8 304.64 312.32 409.6 419.84 519.68z" fill="#F47E20" p-id="34567"></path></svg>