<svg t="1592730263455" class="icon" viewBox="0 0 1024 1024" version="1.1" xmlns="http://www.w3.org/2000/svg" p-id="35058" width="200" height="200"><path d="M311.397 689.981c-45.169-32.618-88.394-90.219-116.91-162.416-28.512-72.08-36.269-143.709-25.545-198.338a3233.508 3233.508 0 0 1-27.034 14.028c-54.061 21.327-66.494 118.046-27.826 216.019 38.664 97.972 113.827 160.134 167.889 138.804 9.809-2.737 19.617-5.473 29.426-8.097z m0 0" fill="#5B79FB" p-id="35059"></path><path d="M367.34 507.868s-23.027-22.406-38.561-4.935c-15.534 17.472-18.063 76.39 29.866 124.318 47.928 47.928 109.95 220.709 109.95 332.81 0 31.488 6.972 62.8 68.685 62.938 61.712 0.138 81.973-14.46 87.688-41.124s6.783-104.572-32.073-184.448S447.541 571.349 367.34 507.868z" fill="#A4BEFF" p-id="35060"></path><path d="M610.798 841.901a344.904 344.904 0 0 0-17.903-44.475C554.039 717.55 447.541 571.349 367.34 507.868c0 0-23.027-22.406-38.561-4.935-15.534 17.472-18.063 76.39 29.866 124.318 36.514 36.514 81.202 145.493 100.419 244.899 14.858-8.468 78.971-41.702 151.734-30.249z" fill="#5B79FB" p-id="35061"></path><path d="M598.36 8.389c94.775-37.411 226.737 71.624 294.489 243.507 67.861 171.883 45.962 341.596-48.82 379.007-14.939 5.927-30.905 8.207-47.331 7.067-165.833-10.831-308.518 8.326-437.058 39.466-44.478-20.532-94.209-82.92-126.714-165.151-32.392-82.236-38.663-161.732-20.303-207.012C325.768 241.288 445.64 156.091 559.01 35.417c11.288-11.86 24.406-21.096 39.35-27.028z m0 0" fill="#E5ECFF" p-id="35062"></path><path d="M828.181 590.751c74.017-29.197 86.108-174.276 27.028-323.912C796.13 117.198 688.231 19.451 614.213 48.648c-53.837 21.218-63.759 188.422-12.55 323.804 53.495 141.197 171.995 239.856 226.518 218.299z m0 0" fill="#FFAB39" p-id="35063"></path><path d="M636.225 1.091c86.224-1.258 189.557 93.411 249.893 234.382 1.709 4.22 3.535 8.439 5.248 12.771 71.281 180.781 37.068 346.844-40.49 377.524-77.561 30.568-211.005-71.511-275.557-242.136C513.387 220.187 537.338 33.94 602.236 8.276c10.837-4.219 22.242-6.617 33.989-7.185z m191.956 589.66c74.017-29.197 86.108-174.276 27.028-323.912C796.13 117.198 688.231 19.451 614.213 48.648c-53.837 21.218-63.759 188.422-12.55 323.804 53.495 141.197 171.995 239.856 226.518 218.299z m0 0" fill="#FF6357" p-id="35064"></path><path d="M667.134 635.388c-51.438 4.679-142.455-103.374-183.517-221.65-43.112-123.861-38.321-273.389-5.701-299.052C504.831 88 558.982 22.955 598.473 8.343c94.78-37.411 226.742 71.786 294.489 243.664 67.86 171.883 45.967 341.596-48.815 379.007-41.657 17.629-130.938 2.549-177.013 4.374z m0 0" fill="#5B79FB" p-id="35065"></path><path d="M828.181 590.751c74.017-29.197 86.108-174.276 27.028-323.912C796.13 117.198 688.231 19.451 614.213 48.648c-53.837 21.218-63.759 188.422-12.55 323.804 53.495 141.197 171.995 239.856 226.518 218.299z m0 0" fill="#FFFFFF" p-id="35066"></path><path d="M646.602 256.569c52.466 0 95.124 42.546 95.124 95.124 0 44.826-31.023 82.462-72.769 92.501-17.793-24.298-33.759-52.81-45.62-84.062-11.178-29.652-18.59-61.248-22.471-91.698 13.573-7.641 29.201-11.865 45.736-11.865z m0 0" fill="#FF6A5C" p-id="35067"></path></svg>