<?xml version="1.0" standalone="no"?><!DOCTYPE svg PUBLIC "-//W3C//DTD SVG 1.1//EN" "http://www.w3.org/Graphics/SVG/1.1/DTD/svg11.dtd"><svg t="1592668894409" class="icon" viewBox="0 0 1024 1024" version="1.1" xmlns="http://www.w3.org/2000/svg" p-id="1336" xmlns:xlink="http://www.w3.org/1999/xlink" width="200" height="200"><defs><style type="text/css"></style></defs><path d="M511.708513 0c175.421793 0 303.880828 135.980138 314.050207 331.352276 4.590345 11.405241 7.20331 23.799172 7.556414 36.369655a162.78069 162.78069 0 0 1 18.149517 72.103724c35.84 26.270897 67.831172 82.379034 87.569655 131.177931l4.802207 12.535173c25.035034 67.442759 48.022069 174.856828-5.755586 204.199724-23.198897 12.711724-52.329931 5.049379-80.154483-22.633931a274.961655 274.961655 0 0 1-37.499586 56.637793c30.72 20.833103 47.668966 48.233931 47.668965 78.388965 0 66.348138-81.249103 116.312276-189.086896 116.312276-72.809931 0-135.591724-23.763862-167.300414-60.663172-31.532138 36.934621-94.17269 60.663172-167.194483 60.663172-107.802483 0-189.051586-49.964138-189.051586-116.276965 0-29.766621 17.302069-57.449931 47.668966-78.353655a270.830345 270.830345 0 0 1-37.605518-56.849656c-16.737103 16.560552-36.016552 28.777931-56.496551 28.777931-8.474483 0-16.489931-2.01269-23.799173-6.073379-56.673103-31.108414-27.259586-150.775172-0.918069-216.523034 19.773793-48.975448 51.835586-105.118897 87.781518-131.283862a164.546207 164.546207 0 0 1 18.008275-72.103725A104.871724 104.871724 0 0 1 197.552375 331.493517C207.792375 136.050759 336.28672 0 511.708513 0z m0 52.965517C365.98272 52.965517 259.274858 165.605517 250.517892 334.247724a52.965517 52.965517 0 0 1-1.871448 11.369931l-1.836138 5.473104a53.671724 53.671724 0 0 0-3.425103 13.417931l-0.282483 4.307862a52.965517 52.965517 0 0 1-3.884138 18.926345l-2.08331 4.413793c-7.485793 14.441931-11.652414 31.143724-12.040828 48.904827a52.965517 52.965517 0 0 1-17.549241 38.135173l-4.237242 3.460413c-22.598621 16.489931-50.21131 59.674483-69.773241 108.190897-27.436138 68.466759-34.180414 138.699034-23.905103 149.504l0.317793 0.247172c2.895448-0.741517 8.050759-3.778207 14.830344-9.922206l3.531035-3.354483a52.965517 52.965517 0 0 1 84.744828 14.230069c6.497103 13.170759 14.30069 25.63531 23.304827 37.217103l6.956138 8.509793a52.965517 52.965517 0 0 1-10.134069 78.177104c-17.231448 11.828966-24.717241 24.081655-24.717241 34.710069 0 30.225655 53.777655 63.311448 136.086069 63.311448 54.554483 0 100.775724-15.889655 123.233103-38.135172l3.672276-3.954759a52.965517 52.965517 0 0 1 76.76469-4.025379l3.707586 3.884138c20.974345 24.399448 69.561379 42.231172 127.117241 42.231172 82.343724 0 136.121379-33.085793 136.15669-63.346759 0-11.087448-7.20331-22.845793-24.470069-34.604138a52.965517 52.965517 0 0 1-10.487172-78.247724c11.934897-13.947586 22.104276-29.307586 30.260965-45.726896a52.965517 52.965517 0 0 1 81.213793-17.266759l3.601655 3.283862c6.391172 6.355862 12.005517 10.27531 16.242759 12.111448l2.153931 0.776828c10.310621-10.593103 4.413793-75.881931-20.797793-141.947586l-3.001379-7.662345c-18.39669-45.585655-43.749517-86.333793-65.430069-104.871724l-4.272552-3.425104a52.965517 52.965517 0 0 1-21.680552-41.560275c-0.353103-17.655172-4.590345-34.321655-12.111448-48.692966a52.965517 52.965517 0 0 1-5.508414-17.090207l-0.494345-6.002758a52.965517 52.965517 0 0 0-2.224551-13.735725l-1.483035-4.237241a52.965517 52.965517 0 0 1-3.778207-17.125517C764.071548 165.605517 657.469617 52.965517 511.708513 52.965517z"  opacity=".86" p-id="1337"></path></svg>