<svg t="1592719988905" class="icon" viewBox="0 0 1024 1024" version="1.1" xmlns="http://www.w3.org/2000/svg" p-id="24264" width="200" height="200"><path d="M295.3216 882.722133c-28.023467-6.7584-54.408533-23.722667-75.844267-47.445333l-181.418666-213.640533c-26.385067-30.5152-39.594667-71.202133-37.922134-111.889067 3.310933-40.686933 21.435733-79.6672 51.131734-106.8032L460.253867 35.054933c29.696-27.136 70.894933-38.980267 110.4896-33.8944l196.232533 30.5152c65.979733 10.171733 113.800533 67.7888 115.438933 135.611734l4.949334 203.434666c1.6384 42.3936-16.4864 81.408-46.1824 108.544L432.196267 848.7936a147.899733 147.899733 0 0 1-136.874667 33.8944zM268.970667 789.504c31.3344 35.601067 84.104533 38.980267 118.749866 8.465067L796.672 430.08c16.4864-13.550933 24.712533-33.8944 24.712533-55.978667L816.469333 170.666667a70.4512 70.4512 0 0 0-59.357866-69.495467l-196.266667-30.5152c-21.4016-3.413333-41.198933 3.413333-57.685333 16.964267L94.139733 453.802667a91.0336 91.0336 0 0 0-28.023466 59.357866 85.640533 85.640533 0 0 0 21.435733 62.702934l181.384533 213.640533z" fill="#1677FF" p-id="24265"></path><path d="M1020.791467 346.7264c8.6016-41.335467 0-84.411733-27.511467-118.8864L915.8656 136.533333v8.6016l1.706667 99.9424 22.391466 25.838934c13.755733 17.237333 18.909867 39.6288 13.755734 60.3136l-120.4224 554.8032c-5.154133 22.391467-18.909867 43.076267-37.853867 55.125333-20.616533 12.049067-43.008 17.237333-67.072 12.049067l-280.3712-62.020267c-13.789867-3.413333-25.8048-6.894933-34.4064-12.049067-22.391467 13.789867-46.455467 24.098133-72.260267 27.5456 17.2032 22.4256 44.714667 39.6288 82.568534 49.9712 3.413333 1.706667 6.894933 1.706667 10.308266 1.706667l278.664534 62.0544c41.301333 8.6016 82.602667 1.706667 118.715733-20.6848a153.873067 153.873067 0 0 0 68.8128-98.2016l120.388267-554.8032zM657.851733 281.258667a70.8608 70.8608 0 0 1-49.902933-84.411734c8.6016-37.888 46.455467-58.606933 84.309333-49.9712a70.8608 70.8608 0 0 1 49.8688 84.411734c-8.6016 37.888-48.128 60.3136-84.309333 49.9712z m25.8048-99.9424c-18.944-5.154133-37.853867 6.894933-41.301333 24.132266-5.12 18.944 6.894933 37.888 24.098133 41.3696 18.909867 5.154133 37.819733-6.894933 41.301334-24.132266 3.413333-17.237333-6.894933-36.181333-24.098134-41.3696z" fill="#1677FF" p-id="24266"></path></svg>